<?xml version="1.0" encoding="UTF-8"?><svg id="Layer_2" xmlns="http://www.w3.org/2000/svg" viewBox="0 0 465 316"><defs><style>.cls-1{stroke:#001858;}.cls-1,.cls-2{fill:#001858;}.cls-1,.cls-3{stroke-miterlimit:10;}.cls-4,.cls-3{fill:#0040d0;}.cls-3{stroke:#0040d0;}</style></defs><g id="Layer_1-2"><g><ellipse class="cls-4" cx="345" cy="105.2" rx="59.25" ry="56.7"/><path class="cls-4" d="M345,49c32.39,0,58.75,25.21,58.75,56.2s-26.36,56.2-58.75,56.2-58.75-25.21-58.75-56.2,26.36-56.2,58.75-56.2m0-1c-33,0-59.75,25.61-59.75,57.2s26.75,57.2,59.75,57.2,59.75-25.61,59.75-57.2-26.75-57.2-59.75-57.2h0Z"/></g><path class="cls-3" d="M225.5,289c0-63.18,53.5-114.4,119.5-114.4s119.5,51.22,119.5,114.4"/><g><g><circle class="cls-2" cx="150.5" cy="75" r="74.5"/><path class="cls-2" d="M150.5,1c40.8,0,74,33.2,74,74s-33.2,74-74,74-74-33.2-74-74S109.7,1,150.5,1m0-1c-41.42,0-75,33.58-75,75s33.58,75,75,75,75-33.58,75-75S191.92,0,150.5,0h0Z"/></g><path class="cls-1" d="M.5,316c0-82.84,67.16-150,150-150s150,67.16,150,150"/></g></g></svg>